HIERARCHY
ROOT Hips
{
	OFFSET 0.000000 71.427986 0.000000
	CHANNELS 6 Xposition Yposition Zposition Xrotation Yrotation Zrotation
	JOINT Pelvis
	{
		OFFSET 0.000000 0.000000 0.000000
		CHANNELS 3 Xrotation Yrotation Zrotation
		JOINT LeftUpLeg
		{
			OFFSET 6.797100 -2.508499 -1.318700
			CHANNELS 3 Xrotation Yrotation Zrotation
			JOINT LeftLeg
			{
				OFFSET 0.069008 -29.241863 0.690200
				CHANNELS 3 Xrotation Yrotation Zrotation
				JOINT LeftFoot
				{
					OFFSET -0.069008 -29.568123 -0.266800
					CHANNELS 3 Xrotation Yrotation Zrotation
					JOINT LeftToeBase
					{
						OFFSET 3.145500 -8.631000 16.059900
						CHANNELS 3 Xrotation Yrotation Zrotation
						End Site
						{
							OFFSET 0.000000 18.501587 0.000000
						}
					}
				}
			}
			JOINT Left_ShortSleeve
			{
				OFFSET 0.265923 -10.480953 1.153800
				CHANNELS 3 Xrotation Yrotation Zrotation
				End Site
				{
					OFFSET 1.725763 19.823879 0.000000
				}
			}
		}
		JOINT RightUpLeg
		{
			OFFSET -6.797100 -2.508499 -1.318700
			CHANNELS 3 Xrotation Yrotation Zrotation
			JOINT RightLeg
			{
				OFFSET -0.082453 -29.241932 0.688000
				CHANNELS 3 Xrotation Yrotation Zrotation
				JOINT RightFoot
				{
					OFFSET 0.082453 -29.568058 -0.264600
					CHANNELS 3 Xrotation Yrotation Zrotation
					JOINT RightToeBase
					{
						OFFSET -3.115300 -8.682800 16.113400
						CHANNELS 3 Xrotation Yrotation Zrotation
						End Site
						{
							OFFSET 0.000000 18.567114 0.000000
						}
					}
				}
			}
			JOINT Right_ShortSleeve
			{
				OFFSET -0.265923 -10.480953 1.153800
				CHANNELS 3 Xrotation Yrotation Zrotation
				End Site
				{
					OFFSET -1.725766 19.823910 0.000000
				}
			}
		}
	}
	JOINT Spine
	{
		OFFSET 0.000000 13.368103 0.470500
		CHANNELS 3 Xrotation Yrotation Zrotation
		JOINT Spine1
		{
			OFFSET 0.147000 13.837402 0.538800
			CHANNELS 3 Xrotation Yrotation Zrotation
			JOINT Spine2
			{
				OFFSET 0.168000 16.242897 -1.435500
				CHANNELS 3 Xrotation Yrotation Zrotation
				JOINT Neck
				{
					OFFSET 0.217200 18.631500 -1.679100
					CHANNELS 3 Xrotation Yrotation Zrotation
					JOINT Head
					{
						OFFSET 0.000000 6.599396 1.385900
						CHANNELS 3 Xrotation Yrotation Zrotation
						JOINT Hat
						{
							OFFSET -0.532200 27.220596 -10.096100
							CHANNELS 3 Xrotation Yrotation Zrotation
							End Site
							{
								OFFSET 0.000000 22.029861 0.000000
							}
						}
						JOINT HairD
						{
							OFFSET -10.777400 17.437393 -1.325900
							CHANNELS 3 Xrotation Yrotation Zrotation
							JOINT HairD1
							{
								OFFSET -3.290299 -11.051193 1.062200
								CHANNELS 3 Xrotation Yrotation Zrotation
								End Site
								{
									OFFSET 0.000000 11.579437 0.000000
								}
							}
						}
						JOINT HairB
						{
							OFFSET -10.777400 17.437393 1.467900
							CHANNELS 3 Xrotation Yrotation Zrotation
							JOINT HairB1
							{
								OFFSET -1.561200 -12.956299 3.590200
								CHANNELS 3 Xrotation Yrotation Zrotation
								End Site
								{
									OFFSET 0.000000 13.534866 0.000000
								}
							}
						}
						JOINT HairA
						{
							OFFSET 9.713100 17.437393 1.467900
							CHANNELS 3 Xrotation Yrotation Zrotation
							JOINT HairA1
							{
								OFFSET 1.561200 -12.956299 3.590200
								CHANNELS 3 Xrotation Yrotation Zrotation
								End Site
								{
									OFFSET 0.000000 13.534866 0.000000
								}
							}
						}
						JOINT HairC
						{
							OFFSET 9.713100 17.437393 -1.325900
							CHANNELS 3 Xrotation Yrotation Zrotation
							JOINT HairC1
							{
								OFFSET 3.290300 -11.051193 1.062200
								CHANNELS 3 Xrotation Yrotation Zrotation
								End Site
								{
									OFFSET 0.000000 11.579437 0.000000
								}
							}
						}
					}
				}
				JOINT LeftShoulder
				{
					OFFSET 5.101800 15.108002 -2.763700
					CHANNELS 3 Xrotation Yrotation Zrotation
					JOINT LeftArm
					{
						OFFSET 9.825497 2.506317 -1.597400
						CHANNELS 3 Xrotation Yrotation Zrotation
						JOINT LeftForeArm
						{
							OFFSET 21.966244 0.000000 0.000000
							CHANNELS 3 Xrotation Yrotation Zrotation
							JOINT LeftHand
							{
								OFFSET 33.879036 0.000000 0.000000
								CHANNELS 3 Xrotation Yrotation Zrotation
								JOINT LeftHandThumb1
								{
									OFFSET 6.715286 -2.359680 3.363841
									CHANNELS 3 Xrotation Yrotation Zrotation
									JOINT LeftHandThumb2
									{
										OFFSET 2.507072 -1.447464 1.447461
										CHANNELS 3 Xrotation Yrotation Zrotation
										JOINT LeftHandThumb3
										{
											OFFSET 2.898338 -1.673355 1.673357
											CHANNELS 3 Xrotation Yrotation Zrotation
											End Site
											{
												OFFSET -0.295959 3.727692 -0.131651
											}
										}
									}
								}
								JOINT LeftHandIndex1
								{
									OFFSET 14.190811 -0.254547 3.840278
									CHANNELS 3 Xrotation Yrotation Zrotation
									JOINT LeftHandIndex2
									{
										OFFSET 3.551727 0.000000 -0.000000
										CHANNELS 3 Xrotation Yrotation Zrotation
										JOINT LeftHandIndex3
										{
											OFFSET 2.894196 0.000000 0.000000
											CHANNELS 3 Xrotation Yrotation Zrotation
											End Site
											{
												OFFSET -1.000603 2.690872 0.366626
											}
										}
									}
								}
								JOINT LeftHandMiddle1
								{
									OFFSET 13.776489 0.000000 0.000000
									CHANNELS 3 Xrotation Yrotation Zrotation
									JOINT LeftHandMiddle2
									{
										OFFSET 3.438232 0.000000 0.000000
										CHANNELS 3 Xrotation Yrotation Zrotation
										JOINT LeftHandMiddle3
										{
											OFFSET 3.691551 0.000000 0.000000
											CHANNELS 3 Xrotation Yrotation Zrotation
											End Site
											{
												OFFSET -1.082298 3.499527 0.457670
											}
										}
									}
								}
								JOINT LeftHandRing1
								{
									OFFSET 13.966164 -0.268127 -3.067488
									CHANNELS 3 Xrotation Yrotation Zrotation
									JOINT LeftHandRing2
									{
										OFFSET 3.162567 0.000000 0.000000
										CHANNELS 3 Xrotation Yrotation Zrotation
										JOINT LeftHandRing3
										{
											OFFSET 3.324348 0.000000 0.000000
											CHANNELS 3 Xrotation Yrotation Zrotation
											End Site
											{
												OFFSET -0.861900 3.184998 0.405154
											}
										}
									}
								}
								JOINT LeftHandPinky1
								{
									OFFSET 13.131393 -0.168503 -5.746925
									CHANNELS 3 Xrotation Yrotation Zrotation
									JOINT LeftHandPinky2
									{
										OFFSET 2.849182 0.000000 0.000000
										CHANNELS 3 Xrotation Yrotation Zrotation
										JOINT LeftHandPinky3
										{
											OFFSET 2.805038 0.000000 0.000000
											CHANNELS 3 Xrotation Yrotation Zrotation
											End Site
											{
												OFFSET -0.882500 2.642609 0.325652
											}
										}
									}
								}
							}
							JOINT Left_Sleeve
							{
								OFFSET 6.592125 -0.646545 0.805568
								CHANNELS 3 Xrotation Yrotation Zrotation
								End Site
								{
									OFFSET -0.000179 20.275787 -0.000000
								}
							}
						}
					}
				}
				JOINT RightShoulder
				{
					OFFSET -5.731700 15.108002 -2.763700
					CHANNELS 3 Xrotation Yrotation Zrotation
					JOINT RightArm
					{
						OFFSET -9.825497 2.506317 -1.597400
						CHANNELS 3 Xrotation Yrotation Zrotation
						JOINT RightForeArm
						{
							OFFSET -21.966242 0.000000 0.000000
							CHANNELS 3 Xrotation Yrotation Zrotation
							JOINT RightHand
							{
								OFFSET -33.879032 0.000000 0.000000
								CHANNELS 3 Xrotation Yrotation Zrotation
								JOINT RightHandThumb1
								{
									OFFSET -6.715286 -2.359680 3.363841
									CHANNELS 3 Xrotation Yrotation Zrotation
									JOINT RightHandThumb2
									{
										OFFSET -2.507072 -1.447464 1.447461
										CHANNELS 3 Xrotation Yrotation Zrotation
										JOINT RightHandThumb3
										{
											OFFSET -2.898338 -1.673355 1.673357
											CHANNELS 3 Xrotation Yrotation Zrotation
											End Site
											{
												OFFSET 0.295959 3.727692 -0.131651
											}
										}
									}
								}
								JOINT RightHandIndex1
								{
									OFFSET -14.190811 -0.254547 3.840278
									CHANNELS 3 Xrotation Yrotation Zrotation
									JOINT RightHandIndex2
									{
										OFFSET -3.551727 0.000000 -0.000000
										CHANNELS 3 Xrotation Yrotation Zrotation
										JOINT RightHandIndex3
										{
											OFFSET -2.894196 0.000000 0.000000
											CHANNELS 3 Xrotation Yrotation Zrotation
											End Site
											{
												OFFSET 1.000603 2.690872 0.366626
											}
										}
									}
								}
								JOINT RightHandMiddle1
								{
									OFFSET -13.776489 0.000000 0.000000
									CHANNELS 3 Xrotation Yrotation Zrotation
									JOINT RightHandMiddle2
									{
										OFFSET -3.438232 0.000000 0.000000
										CHANNELS 3 Xrotation Yrotation Zrotation
										JOINT RightHandMiddle3
										{
											OFFSET -3.691551 0.000000 0.000000
											CHANNELS 3 Xrotation Yrotation Zrotation
											End Site
											{
												OFFSET 1.082298 3.499527 0.457670
											}
										}
									}
								}
								JOINT RightHandRing1
								{
									OFFSET -13.966164 -0.268127 -3.067488
									CHANNELS 3 Xrotation Yrotation Zrotation
									JOINT RightHandRing2
									{
										OFFSET -3.162567 0.000000 0.000000
										CHANNELS 3 Xrotation Yrotation Zrotation
										JOINT RightHandRing3
										{
											OFFSET -3.324348 0.000000 0.000000
											CHANNELS 3 Xrotation Yrotation Zrotation
											End Site
											{
												OFFSET 0.861900 3.184998 0.405154
											}
										}
									}
								}
								JOINT RightHandPinky1
								{
									OFFSET -13.131393 -0.168503 -5.746925
									CHANNELS 3 Xrotation Yrotation Zrotation
									JOINT RightHandPinky2
									{
										OFFSET -2.849182 0.000000 0.000000
										CHANNELS 3 Xrotation Yrotation Zrotation
										JOINT RightHandPinky3
										{
											OFFSET -2.805038 0.000000 0.000000
											CHANNELS 3 Xrotation Yrotation Zrotation
											End Site
											{
												OFFSET 0.882500 2.642609 0.325652
											}
										}
									}
								}
							}
							JOINT Right_Sleeve
							{
								OFFSET -6.592125 -0.646545 0.805568
								CHANNELS 3 Xrotation Yrotation Zrotation
								End Site
								{
									OFFSET 0.000179 20.275787 -0.000000
								}
							}
						}
					}
				}
				JOINT Bind_Right_JacketString
				{
					OFFSET -3.534800 11.969597 7.200700
					CHANNELS 3 Xrotation Yrotation Zrotation
					JOINT Bind_Right_JacketString1
					{
						OFFSET -0.319900 -6.102600 2.794100
						CHANNELS 3 Xrotation Yrotation Zrotation
						End Site
						{
							OFFSET 0.000000 6.719452 0.000000
						}
					}
				}
				JOINT Bind_Left_JacketString
				{
					OFFSET 2.904800 11.969597 7.200700
					CHANNELS 3 Xrotation Yrotation Zrotation
					JOINT Bind_Left_JacketString1
					{
						OFFSET 0.364800 -5.904503 3.186800
						CHANNELS 3 Xrotation Yrotation Zrotation
						End Site
						{
							OFFSET 0.000000 6.719513 0.000000
						}
					}
				}
				JOINT HairE
				{
					OFFSET 5.915200 17.612701 -11.592200
					CHANNELS 3 Xrotation Yrotation Zrotation
					JOINT HairE1
					{
						OFFSET 0.289200 -7.171898 -1.284500
						CHANNELS 3 Xrotation Yrotation Zrotation
						End Site
						{
							OFFSET 0.000000 7.291756 0.000000
						}
					}
				}
				JOINT HairF
				{
					OFFSET -0.864800 17.612701 -11.592200
					CHANNELS 3 Xrotation Yrotation Zrotation
					JOINT HairF1
					{
						OFFSET 0.000000 -14.087097 -2.127501
						CHANNELS 3 Xrotation Yrotation Zrotation
						End Site
						{
							OFFSET 0.000000 14.246841 0.000000
						}
					}
				}
				JOINT HairG
				{
					OFFSET -8.087700 17.612701 -11.592200
					CHANNELS 3 Xrotation Yrotation Zrotation
					JOINT HairG1
					{
						OFFSET -0.293600 -6.081398 -0.910100
						CHANNELS 3 Xrotation Yrotation Zrotation
						End Site
						{
							OFFSET 0.000000 6.156120 0.000000
						}
					}
				}
			}
		}
	}
	JOINT Pouch
	{
		OFFSET 0.000000 4.394501 10.847300
		CHANNELS 3 Xrotation Yrotation Zrotation
		End Site
		{
			OFFSET 0.000000 21.880577 0.000000
		}
	}
	JOINT Bag
	{
		OFFSET -13.229000 4.813004 -0.593300
		CHANNELS 3 Xrotation Yrotation Zrotation
		End Site
		{
			OFFSET 0.000000 21.880577 0.000000
		}
	}
	JOINT OccupyGuyFacialAnim_Joint
	{
		OFFSET 1.000000 -70.206398 -1.655000
		CHANNELS 3 Xrotation Yrotation Zrotation
		End Site
		{
			OFFSET 0.000000 21.880577 0.000000
		}
	}
}
MOTION
Frames: 4
Frame Time: 0.033333
-0.927839 64.993065 -0.203470 17.531805 -74.788563 12.380827 -0.000000 -0.000001 0.000000 -31.927443 22.785506 40.231986 26.091280 0.905678 -1.879795 -0.184295 1.225105 -20.739373 0.000000 -0.000002 -0.000000 -0.000003 -0.000002 0.000000 -28.563204 -6.862416 -7.117641 49.585138 16.231963 -8.405437 -26.465158 0.006702 1.243326 0.000000 0.000000 0.000001 0.000000 0.000000 -0.000000 3.801167 -1.517385 -0.916643 7.531247 -3.206421 -2.328761 7.573101 -3.207294 -2.327625 -13.204712 29.217357 5.228577 15.035456 29.392862 -4.149129 -0.000000 0.000000 0.000001 -0.000000 0.000000 0.000001 -0.000000 0.000000 0.000000 -0.000000 0.000000 0.000001 -0.000002 -0.000000 0.000003 -0.000000 0.000000 0.000001 -0.000002 -0.000000 0.000003 -0.000000 0.000000 0.000001 -0.000000 0.000000 0.000001 5.845619 -16.793979 3.059850 -70.839246 -14.448941 -85.967930 38.984654 -34.349978 -11.140198 1.002101 -12.576374 26.429239 4.306728 -1.558813 -5.137247 15.732321 12.674827 8.828582 -0.000000 -0.000000 -0.000000 -6.960784 -3.007053 -34.030086 0.003469 -4.389297 -57.820509 -0.000001 0.000000 -0.000000 -7.086248 1.132317 -51.618519 -0.063089 -4.895897 -71.831897 0.000001 0.000001 -0.000003 -4.446748 3.923167 -59.141331 -1.091423 -0.672404 -59.020846 -0.000001 -0.000001 -0.000003 -8.837226 8.274747 -56.386675 -0.020132 -0.050855 -45.639884 -0.000001 0.000001 -0.000001 0.000001 0.000003 0.000001 4.201825 8.529855 -8.188663 -43.730686 2.034089 63.149839 38.035145 77.602588 -7.734995 -66.820827 38.403155 -24.400701 24.918338 -21.323388 30.343037 9.041927 8.262091 -18.001804 -0.000000 -0.000001 0.000000 -0.070708 -3.035236 61.424212 0.006466 4.395174 66.609173 -0.000002 0.000001 0.000004 -1.235394 -0.119479 68.274277 -0.077315 4.902854 84.501898 0.000006 -0.000001 -0.000003 0.883159 -4.613444 79.192936 -0.717767 1.136507 73.255753 0.000001 -0.000002 0.000001 -3.944535 0.099986 86.764760 -0.029794 0.060139 54.415144 0.000001 -0.000001 0.000000 0.000000 -0.000000 -0.000001 0.000000 -0.000000 0.000002 0.000000 0.000000 0.000000 0.000000 -0.000000 0.000001 0.000000 -0.000000 0.000001 0.000000 -0.000000 0.000002 0.000000 0.000000 0.000001 0.000000 -0.000000 0.000001 0.000000 -0.000000 0.000001 0.000000 -0.000000 0.000002 0.000000 0.000000 0.000001 -0.000000 -0.000001 0.000000 -0.000000 -0.000001 0.000000 -0.000000 -0.000001 0.000000 
-0.875265 65.030991 -0.085428 16.730063 -74.858832 12.389303 -0.000000 -0.000000 -0.000000 -31.291050 22.561356 39.216306 27.510796 0.227905 -2.259567 -1.109793 1.738332 -20.147602 0.000000 0.000001 -0.000000 -0.000001 -0.000002 -0.000002 -28.546426 -6.416943 -8.056054 49.700210 16.312976 -8.279143 -26.514446 0.050862 1.325292 0.000000 0.000001 0.000001 -0.000000 -0.000000 -0.000000 3.803428 -1.607380 -1.000683 7.496848 -3.769037 -2.406401 7.539341 -3.768953 -2.394002 -13.033077 29.408069 5.272434 15.585802 30.152017 -4.880870 -0.000000 0.000001 -0.000000 -0.000000 0.000001 -0.000000 -0.000000 0.000001 0.000001 -0.000000 0.000001 0.000001 -0.000003 -0.000001 -0.000000 -0.000000 0.000001 0.000001 -0.000003 -0.000001 -0.000000 -0.000000 0.000001 -0.000000 -0.000000 0.000001 -0.000000 5.901365 -16.911103 3.114008 -69.106433 -15.533225 -82.899761 41.118278 -39.888598 -9.764288 -3.484033 -10.479054 24.842458 4.306729 -1.558812 -5.137240 15.732313 12.674828 8.828577 -0.000000 -0.000002 -0.000001 -6.960761 -3.007037 -34.030089 0.003472 -4.389289 -57.820509 0.000000 0.000001 -0.000002 -7.086249 1.132305 -51.618513 -0.063105 -4.895867 -71.831891 0.000002 0.000001 -0.000001 -4.446740 3.923165 -59.141317 -1.091444 -0.672410 -59.020867 -0.000000 0.000002 -0.000004 -8.837229 8.274762 -56.386644 -0.020133 -0.050854 -45.639884 0.000001 -0.000001 0.000004 0.000002 0.000003 0.000002 3.927625 8.626041 -8.221789 -42.696520 3.253894 63.813399 40.485038 78.276686 -11.475191 -66.866562 37.918109 -24.264860 24.918349 -21.323384 30.343061 9.041925 8.262095 -18.001797 -0.000000 -0.000002 0.000000 -0.070700 -3.035211 61.424219 0.006468 4.395175 66.609173 -0.000000 -0.000001 0.000002 -1.235420 -0.119483 68.274284 -0.077316 4.902857 84.501898 0.000000 0.000001 -0.000004 0.883163 -4.613422 79.192929 -0.717785 1.136500 73.255760 -0.000000 -0.000000 -0.000001 -3.944538 0.099987 86.764754 -0.029785 0.060121 54.415116 0.000001 -0.000001 -0.000003 0.000001 0.000002 0.000001 -0.000002 -0.000000 -0.000001 -0.000002 -0.000000 -0.000000 -0.000002 -0.000000 -0.000001 -0.000002 -0.000000 -0.000001 -0.000002 -0.000000 -0.000001 -0.000002 -0.000000 -0.000000 -0.000002 -0.000000 -0.000001 -0.000002 -0.000000 -0.000001 -0.000002 -0.000000 -0.000001 -0.000002 -0.000000 -0.000000 -0.000000 -0.000000 -0.000000 -0.000000 -0.000000 -0.000000 -0.000000 -0.000000 -0.000000 
-0.738333 65.128021 0.110260 16.586688 -74.912067 12.956906 -0.000000 0.000001 -0.000000 -32.111663 21.553439 39.388472 30.502016 -0.973566 -3.232016 -0.735270 1.714307 -19.739955 0.000000 0.000001 0.000000 0.000004 0.000002 -0.000000 -28.551728 -5.852200 -9.091917 49.340412 16.539341 -7.856049 -26.272809 0.024382 1.415637 0.000000 -0.000001 0.000001 0.000002 -0.000001 -0.000001 3.810131 -1.977172 -1.227388 7.429918 -4.626415 -2.666674 7.474637 -4.624081 -2.624859 -12.592100 29.906407 5.387786 15.310834 31.464523 -5.418366 -0.000001 0.000000 -0.000001 -0.000001 0.000000 -0.000001 -0.000001 0.000000 -0.000001 -0.000001 0.000000 -0.000002 -0.000003 -0.000001 0.000001 -0.000001 0.000000 -0.000002 -0.000003 -0.000001 0.000001 -0.000001 0.000000 -0.000001 -0.000001 0.000000 -0.000001 6.032152 -17.218188 3.256772 -66.043428 -18.008345 -78.689414 48.074946 -49.248628 -2.797742 -12.215016 -5.304532 20.652443 4.306729 -1.558812 -5.137247 15.732335 12.674836 8.828573 -0.000001 -0.000001 -0.000000 -6.960811 -3.007046 -34.030096 0.003477 -4.389303 -57.820522 0.000003 0.000000 0.000002 -7.086275 1.132319 -51.618519 -0.063094 -4.895892 -71.831897 -0.000001 0.000001 -0.000004 -4.446779 3.923165 -59.141297 -1.091429 -0.672404 -59.020833 -0.000002 0.000000 -0.000003 -8.837240 8.274754 -56.386661 -0.020133 -0.050857 -45.639884 -0.000000 0.000000 0.000001 0.000002 0.000003 -0.000000 3.815594 8.873607 -8.295406 -38.839020 5.427095 63.536906 51.836758 80.685250 -26.584263 -69.512987 38.029445 -22.453405 24.918325 -21.323396 30.343033 9.041925 8.262090 -18.001797 0.000000 -0.000001 0.000001 -0.070691 -3.035226 61.424233 0.006468 4.395170 66.609173 -0.000001 0.000000 0.000004 -1.235383 -0.119498 68.274264 -0.077317 4.902858 84.501898 0.000008 -0.000001 0.000001 0.883186 -4.613440 79.192949 -0.717775 1.136489 73.255746 0.000001 0.000000 0.000002 -3.944538 0.099988 86.764760 -0.029799 0.060128 54.415116 -0.000001 0.000003 0.000004 -0.000001 -0.000001 -0.000003 -0.000002 0.000000 0.000000 -0.000000 0.000000 0.000001 -0.000002 0.000000 0.000000 -0.000002 0.000000 0.000000 -0.000002 0.000000 0.000000 -0.000000 0.000000 0.000001 -0.000002 0.000000 0.000000 -0.000002 0.000000 0.000000 -0.000002 0.000000 0.000000 -0.000000 0.000000 0.000001 -0.000000 0.000001 -0.000000 -0.000000 0.000001 -0.000000 -0.000000 0.000001 -0.000000 
-0.530574 65.264381 0.400796 16.590733 -75.034826 13.729166 -0.000000 0.000000 -0.000000 -32.763898 20.524181 39.729038 32.978131 -2.294086 -4.601204 0.380846 1.544893 -19.265040 -0.000000 -0.000000 -0.000000 -0.000001 0.000001 -0.000000 -28.512415 -5.161808 -10.364183 48.663086 16.923021 -7.213855 -25.828970 -0.008253 1.536504 -0.000000 -0.000002 0.000001 -0.000002 0.000000 -0.000001 3.817321 -2.440430 -1.522407 7.342566 -5.482452 -3.060448 7.391142 -5.477071 -2.979096 -11.989901 30.602362 5.544491 14.597526 32.664085 -5.799678 0.000002 0.000002 -0.000000 0.000002 0.000002 -0.000000 0.000002 0.000002 -0.000001 0.000002 0.000002 -0.000001 0.000001 0.000003 -0.000002 0.000002 0.000002 -0.000001 0.000001 0.000003 -0.000002 0.000002 0.000002 -0.000000 0.000002 0.000002 -0.000000 6.183376 -17.650317 3.447725 -63.521142 -21.719243 -75.029259 59.805287 -57.042871 9.541270 -22.420458 1.056040 16.996791 4.306732 -1.558814 -5.137247 15.732337 12.674820 8.828570 -0.000003 0.000001 -0.000002 -6.960782 -3.007052 -34.030099 0.003457 -4.389293 -57.820481 0.000000 0.000000 -0.000004 -7.086262 1.132314 -51.618547 -0.063092 -4.895871 -71.831891 -0.000000 0.000001 -0.000001 -4.446744 3.923157 -59.141317 -1.091437 -0.672425 -59.020839 -0.000000 0.000001 -0.000003 -8.837234 8.274756 -56.386671 -0.020133 -0.050856 -45.639884 -0.000000 -0.000000 -0.000001 0.000002 -0.000002 -0.000001 3.744415 9.219095 -8.253264 -32.837801 7.719429 62.340277 76.613071 83.199217 -56.962668 -73.143198 38.241874 -19.240455 24.918338 -21.323381 30.343047 9.041926 8.262091 -18.001802 -0.000000 -0.000001 -0.000000 -0.070687 -3.035224 61.424205 0.006466 4.395174 66.609173 -0.000000 -0.000003 -0.000002 -1.235405 -0.119485 68.274270 -0.077314 4.902852 84.501891 0.000004 -0.000001 0.000001 0.883158 -4.613436 79.192936 -0.717772 1.136481 73.255753 0.000001 -0.000002 0.000001 -3.944534 0.099985 86.764760 -0.029803 0.060114 54.415120 -0.000004 -0.000001 0.000000 0.000003 0.000000 0.000001 -0.000000 0.000000 0.000000 -0.000000 0.000000 -0.000000 -0.000000 0.000000 0.000000 -0.000000 0.000000 0.000000 -0.000000 0.000000 0.000000 -0.000000 0.000000 0.000000 -0.000000 0.000000 0.000000 -0.000000 0.000000 0.000000 -0.000000 0.000000 0.000000 -0.000000 0.000000 0.000000 -0.000000 0.000000 -0.000000 -0.000000 0.000000 -0.000000 -0.000000 0.000000 -0.000000 
